<?xml version="1.0" standalone="no"?>
<!DOCTYPE svg PUBLIC "-//W3C//DTD SVG 20010904//EN"
 "http://www.w3.org/TR/2001/REC-SVG-20010904/DTD/svg10.dtd">
<svg version="1.0" xmlns="http://www.w3.org/2000/svg"
 width="1080.000000pt" height="1080.000000pt" viewBox="0 0 1080.000000 1080.000000"
 preserveAspectRatio="xMidYMid meet">
<metadata>
Created by potrace 1.14, written by Peter Selinger 2001-2017
</metadata>
<g transform="translate(0.000000,1080.000000) scale(0.100000,-0.100000)"
fill="#000000" stroke="none">
<path d="M5130 8820 c-8 -5 -33 -10 -56 -10 -36 0 -72 -12 -126 -41 -10 -5
-29 -9 -43 -9 -14 0 -25 -4 -25 -8 0 -5 -12 -15 -27 -23 -16 -8 -37 -22 -48
-32 -11 -10 -32 -26 -47 -35 -16 -9 -28 -20 -28 -24 0 -4 -6 -8 -13 -8 -7 0
-24 -11 -39 -25 -15 -14 -29 -25 -32 -25 -16 0 -188 -192 -194 -217 -2 -7 -10
-13 -17 -13 -8 0 -17 -10 -21 -22 -3 -12 -12 -28 -18 -35 -29 -33 -36 -43 -36
-54 0 -7 -7 -19 -15 -28 -39 -40 -75 -87 -75 -97 0 -6 -7 -17 -15 -24 -8 -7
-20 -30 -27 -52 -6 -22 -20 -45 -30 -52 -10 -6 -18 -18 -18 -28 0 -9 -11 -38
-25 -64 -14 -26 -25 -62 -25 -80 0 -18 -4 -34 -10 -36 -19 -6 -30 -113 -29
-289 0 -110 -4 -186 -11 -199 -16 -30 -33 -191 -33 -315 -1 -118 18 -268 34
-273 5 -2 9 -16 9 -32 0 -38 9 -60 26 -60 9 0 14 -12 14 -34 0 -19 11 -56 25
-82 14 -26 25 -53 25 -60 0 -7 12 -27 28 -43 53 -58 55 -61 35 -61 -10 0 -31
-17 -48 -37 -16 -19 -38 -43 -47 -52 -10 -8 -18 -23 -18 -33 0 -10 -9 -27 -20
-38 -11 -11 -20 -28 -20 -39 0 -10 -7 -24 -15 -31 -8 -7 -15 -19 -15 -26 0 -8
-4 -14 -10 -14 -5 0 -10 -4 -10 -9 0 -9 -60 -105 -80 -128 -5 -7 -10 -19 -10
-26 0 -8 -7 -20 -15 -27 -8 -7 -15 -16 -15 -21 0 -8 -20 -36 -47 -64 -7 -8
-13 -20 -13 -28 0 -8 -7 -20 -15 -27 -8 -7 -15 -19 -15 -26 0 -8 -4 -14 -10
-14 -5 0 -10 -6 -10 -13 0 -7 -9 -19 -20 -27 -11 -8 -20 -20 -20 -26 0 -6 -11
-23 -25 -38 -14 -15 -25 -29 -25 -32 0 -3 -9 -15 -20 -27 -12 -12 -23 -32 -26
-44 -4 -13 -12 -23 -18 -23 -7 0 -21 -19 -31 -42 -10 -24 -25 -49 -32 -56 -7
-7 -13 -21 -13 -31 0 -9 -4 -21 -9 -26 -16 -17 -51 -85 -51 -99 0 -8 -7 -16
-15 -20 -8 -3 -15 -15 -15 -26 0 -11 -4 -20 -10 -20 -5 0 -12 -11 -16 -25 -3
-14 -10 -25 -15 -25 -5 0 -9 -9 -9 -20 0 -11 -4 -20 -10 -20 -5 0 -10 -7 -10
-15 0 -8 -4 -15 -10 -15 -5 0 -10 -6 -10 -14 0 -18 -32 -76 -42 -76 -5 0 -8
-16 -8 -35 0 -19 -4 -35 -9 -35 -10 0 -21 -28 -48 -117 -10 -35 -21 -63 -25
-63 -5 0 -8 -17 -8 -37 0 -20 -6 -44 -14 -52 -7 -9 -23 -63 -35 -120 -11 -58
-25 -109 -31 -115 -5 -5 -10 -27 -10 -48 0 -21 -4 -38 -10 -38 -5 0 -10 -7
-10 -16 0 -16 -8 -34 -45 -104 -18 -34 -22 -54 -45 -240 -6 -47 -15 -104 -20
-128 -6 -23 -10 -69 -10 -102 0 -35 -6 -70 -14 -83 -8 -12 -23 -66 -35 -120
-12 -55 -26 -107 -31 -117 -12 -22 -14 -280 -2 -280 4 0 16 -14 26 -30 55 -94
103 -113 271 -107 222 8 459 26 483 37 13 5 45 10 72 10 28 0 50 4 50 8 0 14
63 30 165 42 55 6 118 16 140 22 22 6 114 15 205 19 316 15 445 25 466 37 35
19 231 29 399 21 139 -7 159 -10 176 -28 10 -11 19 -27 19 -35 0 -8 8 -21 18
-28 10 -8 23 -38 31 -73 6 -33 17 -73 23 -90 6 -16 13 -50 16 -75 2 -25 7 -49
11 -55 10 -13 27 -77 41 -150 6 -33 18 -73 26 -88 8 -16 14 -51 14 -78 0 -27
5 -49 10 -49 6 0 10 -13 10 -29 0 -16 7 -48 15 -71 8 -23 15 -60 15 -81 0 -22
9 -58 19 -82 11 -23 22 -73 24 -112 6 -87 24 -194 37 -217 6 -10 10 -34 10
-53 0 -36 7 -49 47 -88 36 -37 51 -47 72 -47 11 0 23 -4 26 -10 8 -13 72 -13
80 0 3 5 17 10 30 10 30 0 105 71 105 100 0 11 5 29 12 40 10 15 10 29 0 65
-7 25 -12 65 -12 88 0 24 -4 47 -9 53 -5 5 -16 63 -25 129 -20 146 -35 215
-47 215 -5 0 -9 27 -9 60 0 33 -4 60 -8 60 -9 0 -29 93 -38 170 -3 25 -13 61
-22 80 -8 19 -19 53 -23 75 -4 22 -15 67 -24 100 -9 33 -20 85 -24 115 -4 30
-12 66 -18 80 -6 14 -16 45 -23 70 -7 25 -16 54 -22 65 -21 45 -42 80 -60 99
-10 11 -18 25 -18 31 0 17 -100 111 -159 150 -41 27 -63 35 -100 35 -26 0 -52
5 -59 12 -7 7 -67 13 -160 16 -124 4 -153 2 -179 -12 -24 -12 -61 -16 -151
-16 -65 0 -122 -4 -128 -9 -20 -20 -139 -34 -334 -41 -113 -4 -223 -12 -245
-19 -22 -6 -100 -18 -174 -26 -73 -8 -147 -21 -164 -30 -16 -8 -44 -15 -60
-15 -17 0 -38 -7 -46 -15 -16 -14 -89 -25 -300 -44 -57 -5 -109 -15 -114 -20
-6 -6 -28 -11 -49 -11 -35 0 -38 2 -38 28 0 15 7 40 15 56 8 15 15 45 15 66 0
21 6 43 14 49 8 7 17 39 20 74 23 237 58 482 74 520 7 16 12 34 12 42 0 8 5
17 10 20 6 3 10 17 10 31 0 14 6 35 14 47 8 12 21 65 31 117 9 52 23 107 31
122 8 15 14 42 14 59 0 18 6 40 13 48 16 19 37 88 37 120 0 13 7 29 15 37 8 9
18 27 21 42 11 51 96 211 117 220 4 2 7 12 7 23 0 10 5 19 10 19 6 0 10 11 10
24 0 13 7 26 15 30 8 3 15 15 15 26 0 11 5 20 10 20 6 0 10 11 10 25 0 14 4
25 10 25 5 0 21 25 35 55 15 30 31 55 36 55 5 0 9 9 9 20 0 11 4 20 9 20 8 0
81 94 81 105 0 2 11 16 25 31 28 31 44 28 65 -12 8 -16 23 -35 33 -42 9 -7 17
-19 17 -26 0 -7 11 -22 25 -32 14 -10 25 -24 25 -31 0 -7 4 -13 8 -13 5 0 20
-21 33 -46 13 -26 29 -49 36 -51 7 -3 13 -11 13 -19 0 -14 68 -84 82 -84 4 0
8 -7 8 -15 0 -8 4 -15 9 -15 5 0 31 -20 57 -45 27 -25 55 -45 62 -45 6 0 12
-6 12 -14 0 -8 8 -17 19 -21 10 -3 29 -18 43 -33 32 -35 76 -72 86 -72 4 0 14
-9 22 -20 8 -11 20 -20 26 -20 7 0 19 -6 26 -12 7 -7 25 -19 40 -27 15 -8 36
-22 47 -32 10 -10 42 -25 70 -35 28 -9 54 -20 57 -25 3 -5 22 -9 42 -9 20 0
54 -6 77 -14 88 -31 206 -39 506 -34 162 3 288 3 282 1 -7 -3 -13 -9 -13 -13
0 -5 -11 -26 -25 -46 -28 -41 -32 -88 -13 -141 7 -18 18 -33 25 -33 7 0 13 -9
13 -20 0 -15 7 -20 25 -20 14 0 25 -4 25 -10 0 -14 87 -13 127 2 18 7 35 20
38 29 4 10 21 19 48 23 92 16 528 38 797 42 l285 4 73 36 c39 19 72 40 72 45
0 5 6 9 13 9 16 0 187 170 187 186 0 4 11 17 25 30 14 13 25 30 25 38 0 8 9
18 20 21 11 3 20 15 20 26 0 10 5 19 10 19 6 0 10 7 10 15 0 9 7 18 15 21 8 4
15 14 15 23 0 9 14 31 30 49 16 19 32 42 35 53 4 10 11 19 16 19 5 0 9 11 9
25 0 14 3 25 8 25 10 0 42 58 42 76 0 8 4 14 9 14 5 0 22 25 36 55 15 30 31
55 36 55 5 0 9 7 9 15 0 9 11 28 25 43 14 15 25 33 25 41 0 7 8 21 18 30 10 9
26 32 35 51 21 41 32 62 67 115 15 22 30 48 33 58 4 9 11 17 17 17 5 0 10 9
10 20 0 11 5 20 10 20 6 0 10 7 10 15 0 8 4 15 8 15 5 0 16 17 26 38 18 42 31
64 64 109 12 17 22 38 22 46 0 8 9 26 20 40 11 14 20 31 20 38 0 7 5 28 12 46
10 27 10 38 0 53 -7 11 -12 26 -12 33 0 8 -18 33 -40 58 l-39 44 -79 -1 c-72
-1 -81 -4 -107 -30 -16 -16 -40 -51 -53 -79 -13 -27 -28 -58 -33 -67 -5 -10
-9 -26 -9 -37 0 -10 -7 -24 -15 -31 -8 -7 -15 -20 -15 -29 0 -10 -9 -27 -20
-39 -11 -12 -20 -28 -20 -37 0 -8 -3 -15 -8 -15 -7 0 -10 -4 -46 -77 -11 -21
-28 -45 -38 -54 -10 -9 -18 -25 -18 -36 0 -12 -7 -26 -15 -33 -8 -7 -15 -21
-15 -31 0 -11 -4 -19 -10 -19 -5 0 -10 -9 -10 -20 0 -11 -9 -29 -20 -40 -11
-11 -20 -28 -20 -38 0 -9 -11 -34 -25 -54 -14 -20 -25 -44 -25 -53 0 -9 -11
-31 -25 -49 -14 -18 -25 -40 -25 -49 0 -10 -5 -17 -11 -17 -5 0 -16 -15 -24
-32 -7 -18 -23 -43 -34 -55 -12 -12 -21 -28 -21 -36 0 -8 -9 -22 -20 -32 -11
-10 -20 -24 -20 -32 0 -8 -6 -21 -12 -28 -29 -33 -38 -45 -38 -53 0 -5 -11
-19 -25 -32 -14 -13 -25 -29 -25 -37 0 -7 -6 -13 -14 -13 -8 0 -17 -8 -21 -18
-3 -11 -17 -24 -30 -30 -14 -6 -25 -18 -25 -27 0 -8 -6 -15 -14 -15 -7 0 -21
-11 -30 -25 -9 -14 -23 -25 -31 -25 -8 0 -15 -6 -15 -14 0 -8 -7 -17 -16 -20
-23 -9 -556 -7 -552 2 25 52 43 82 50 82 13 0 9 83 -4 113 -7 15 -16 27 -20
27 -5 0 -8 8 -8 18 0 11 -14 27 -35 38 -19 10 -35 22 -35 27 0 12 -164 2 -300
-18 -63 -9 -141 -19 -172 -22 -32 -3 -58 -8 -58 -12 0 -4 -19 -14 -42 -21 -33
-9 -141 -12 -442 -11 -380 2 -477 8 -492 32 -3 5 -16 9 -28 9 -13 0 -34 10
-47 23 -13 12 -36 29 -51 36 -16 8 -28 18 -28 23 0 4 -6 8 -14 8 -7 0 -25 11
-40 25 -15 14 -34 25 -42 25 -7 0 -14 7 -14 15 0 8 -4 15 -10 15 -5 0 -25 14
-43 30 -19 17 -38 30 -41 30 -4 0 -17 11 -30 25 -13 14 -26 25 -30 25 -11 0
-76 68 -76 80 0 5 -6 10 -13 10 -7 0 -21 17 -32 37 -11 20 -37 55 -57 77 -21
23 -38 46 -38 51 0 6 -9 17 -20 25 -11 8 -20 20 -20 27 0 7 -4 13 -10 13 -5 0
-10 7 -10 15 0 9 -7 18 -15 21 -8 4 -15 15 -15 26 0 11 -8 22 -20 25 -11 3
-20 10 -20 16 0 6 -7 19 -17 29 -15 17 -15 21 2 58 10 22 22 40 27 40 4 0 8 6
8 14 0 8 4 16 9 18 12 5 61 85 61 101 0 8 9 22 19 31 11 10 21 28 23 39 2 12
12 23 22 25 11 2 31 15 45 28 33 31 55 30 79 -1 11 -14 24 -25 30 -25 5 0 12
-6 15 -13 6 -17 128 -77 155 -77 20 0 62 -24 122 -67 14 -10 42 -27 63 -38 20
-11 37 -23 37 -27 0 -5 10 -8 21 -8 12 0 27 -7 33 -15 12 -17 99 -44 164 -52
23 -3 42 -9 42 -14 0 -5 20 -9 43 -9 24 0 59 -8 78 -17 49 -25 348 -25 396 0
18 9 46 17 63 17 16 0 38 4 48 9 50 27 171 81 181 81 6 0 11 4 11 10 0 5 11
12 25 16 14 3 25 10 25 15 0 5 6 9 13 9 8 0 22 9 32 20 10 11 24 20 32 20 7 0
13 4 13 8 0 4 15 16 33 27 17 10 43 29 57 42 14 13 29 23 35 23 6 0 17 9 25
20 8 11 18 20 23 20 5 0 15 6 22 13 32 28 43 35 63 41 12 4 22 14 22 22 0 8 6
14 14 14 16 0 76 56 76 70 0 5 9 12 20 15 11 3 20 10 20 15 0 4 11 18 25 31
13 13 25 30 25 37 0 6 4 12 10 12 10 0 53 60 82 114 9 18 23 38 32 45 9 8 16
26 16 42 0 16 4 29 9 29 5 0 22 32 37 70 15 39 31 70 36 70 4 0 8 18 8 40 0
25 5 43 14 46 9 3 18 35 25 87 7 45 17 111 23 147 17 96 15 280 -6 395 -22
130 -35 175 -46 175 -6 0 -10 17 -10 39 0 21 -6 44 -15 51 -8 6 -21 36 -30 66
-10 34 -21 54 -30 54 -9 0 -15 10 -15 25 0 14 -3 25 -8 25 -7 0 -17 19 -61
115 -43 94 -54 115 -63 115 -4 0 -8 9 -8 20 0 11 -3 20 -7 20 -5 0 -21 20 -36
45 -16 25 -33 45 -38 45 -5 0 -9 5 -9 11 0 12 -14 31 -85 113 -76 87 -124 136
-135 136 -5 0 -10 5 -10 10 0 6 -7 10 -15 10 -8 0 -20 9 -27 20 -7 11 -21 20
-30 20 -10 0 -18 4 -18 10 0 5 -11 12 -25 16 -14 3 -25 10 -25 15 0 5 -9 9
-20 9 -11 0 -20 4 -20 9 0 11 -127 81 -146 81 -6 0 -17 6 -23 13 -6 8 -30 19
-53 26 -24 7 -66 21 -93 32 -28 10 -72 19 -98 19 -26 0 -47 4 -47 8 0 10 -81
30 -175 44 -101 14 -367 20 -385 8z m285 -320 c3 -5 35 -10 71 -10 35 0 64 -4
64 -9 0 -4 19 -13 43 -19 23 -6 74 -18 112 -28 39 -9 74 -21 79 -25 6 -5 23
-9 38 -9 15 0 28 -4 28 -9 0 -5 25 -19 56 -30 31 -12 62 -28 71 -36 8 -8 23
-15 34 -15 10 0 19 -4 19 -10 0 -5 6 -10 14 -10 7 0 19 -7 26 -15 7 -8 21 -15
31 -15 11 0 19 -5 19 -10 0 -6 16 -18 35 -27 19 -9 37 -25 41 -35 3 -10 12
-18 20 -18 8 0 18 -8 21 -17 4 -10 18 -30 32 -44 43 -42 81 -88 81 -97 0 -4 8
-15 18 -23 25 -23 62 -72 62 -84 0 -5 9 -21 20 -35 11 -14 20 -35 20 -47 0
-13 5 -23 10 -23 6 0 10 -9 10 -20 0 -11 7 -20 15 -20 9 0 15 -9 15 -25 0 -14
4 -25 8 -25 12 0 52 -75 52 -97 0 -11 7 -28 15 -39 8 -10 15 -38 15 -62 0 -23
4 -50 9 -60 27 -53 42 -165 44 -327 2 -144 -1 -180 -18 -237 -11 -38 -23 -68
-27 -68 -5 0 -8 -16 -8 -35 0 -19 -4 -35 -10 -35 -5 0 -12 -12 -16 -27 -8 -38
-45 -113 -56 -113 -4 0 -8 -4 -8 -9 0 -11 -34 -53 -67 -84 -13 -11 -23 -27
-23 -34 0 -7 -5 -13 -11 -13 -7 0 -19 -8 -28 -18 -9 -11 -26 -24 -38 -31 -13
-6 -23 -18 -23 -26 0 -8 -9 -15 -20 -15 -11 0 -20 -4 -20 -8 0 -5 -20 -19 -45
-31 -25 -12 -45 -26 -45 -31 0 -5 -18 -19 -40 -31 -22 -13 -40 -26 -40 -31 0
-4 -6 -8 -14 -8 -7 0 -24 -10 -37 -23 -13 -13 -32 -26 -41 -30 -10 -3 -18 -13
-18 -22 0 -8 -8 -15 -19 -15 -10 0 -24 -7 -31 -15 -7 -8 -19 -15 -26 -15 -8 0
-14 -4 -14 -10 0 -5 -6 -10 -12 -10 -7 0 -53 -20 -103 -45 l-90 -45 -153 0
c-112 0 -159 4 -175 14 -12 7 -58 19 -102 26 -79 13 -225 72 -225 91 0 5 -9 9
-19 9 -10 0 -21 6 -24 14 -8 20 -131 76 -170 77 -21 0 -51 14 -87 39 -30 22
-72 48 -92 60 -21 11 -38 25 -38 30 0 6 -6 10 -14 10 -19 0 -76 57 -76 76 0 8
-7 14 -15 14 -8 0 -15 4 -15 10 0 5 -13 25 -30 43 -16 19 -30 42 -30 51 0 9
-4 16 -10 16 -5 0 -10 10 -10 23 0 13 -7 32 -15 43 -8 10 -15 30 -15 42 0 13
-8 36 -19 50 -11 17 -21 52 -24 92 -3 36 -10 100 -16 142 -8 56 -8 111 0 205
20 225 20 227 39 240 14 10 19 30 23 80 6 95 30 243 39 243 4 0 8 11 8 25 0
14 5 25 10 25 6 0 15 12 22 28 32 78 70 152 78 152 5 0 12 10 16 23 4 12 17
35 30 50 13 16 24 35 24 43 0 8 11 25 25 38 14 13 25 28 25 34 0 5 20 30 45
55 25 26 45 51 45 57 0 5 4 10 8 10 4 0 24 16 45 35 20 19 48 37 62 41 14 3
25 12 25 20 0 8 7 14 16 14 8 0 21 6 29 13 30 29 54 45 74 52 12 3 21 11 21
16 0 5 15 9 34 9 19 0 38 5 41 10 4 6 63 10 145 10 82 0 141 -4 145 -10z"/>
</g>
</svg>
